<svg width="720" height="720" viewBox="0 0 720 720" fill="none" xmlns="http://www.w3.org/2000/svg">
<rect width="720" height="720" rx="130" fill="#0193CF"/>
<g clip-path="url(#clip0_302_93)">
<path d="M86.6185 377.058C86.9278 375.511 86.9278 374.274 87.5463 372.728C89.4019 364.378 94.6594 358.811 102.7 355.718C108.886 353.244 115.071 352.626 121.566 352.626C127.132 352.317 133.008 352.317 138.575 352.317C139.503 352.317 139.503 352.007 139.503 351.389C139.503 343.966 139.503 336.235 139.503 328.812C139.503 328.194 139.194 327.885 138.575 327.575C134.555 325.41 130.225 324.483 125.895 324.173C119.401 323.555 112.906 323.864 106.412 325.101C104.556 325.41 102.391 326.029 100.536 325.72C99.2984 325.72 98.3706 325.101 97.7521 323.864C96.8243 322.008 96.2058 319.844 95.8965 317.679C95.5872 316.132 96.515 314.895 97.7521 314.277C99.6077 313.04 101.463 313.04 103.319 312.421C111.36 310.566 119.401 310.256 127.442 310.875C135.483 311.493 143.523 313.658 150.946 316.442C151.874 316.751 152.492 317.369 153.42 317.679C154.966 318.607 155.894 320.153 155.894 322.318C156.203 326.957 155.894 331.905 155.894 336.544C155.894 351.389 155.894 365.924 155.894 380.769C155.894 382.934 155.894 385.099 155.894 387.264C155.894 390.356 157.131 391.593 160.224 391.593C162.698 391.593 164.863 390.975 167.028 390.666C170.43 390.047 172.285 390.975 173.213 394.686C173.832 396.542 174.141 398.088 174.45 399.943C174.759 402.108 174.141 403.655 172.285 404.892C170.43 406.129 167.955 407.057 165.791 407.675C160.842 408.912 155.585 409.221 150.637 407.984C146.616 406.747 143.523 404.582 141.359 400.562C140.431 399.016 140.431 399.016 139.194 399.943C134.555 403.345 129.916 406.129 124.349 407.366C115.999 409.221 107.649 409.531 99.6077 406.129C91.8761 403.036 87.8556 396.851 86.3093 388.81C86.3093 388.191 86.3093 387.573 86 386.954C86.6185 382.934 86.6185 380.15 86.6185 377.058ZM140.122 375.821C140.122 372.11 140.122 368.398 140.122 364.996C140.122 364.069 139.812 364.069 138.884 364.069C133.008 364.378 127.132 364.687 121.256 364.996C118.164 365.306 115.071 365.306 112.288 366.234C107.649 367.471 104.865 370.254 103.937 374.893C103.01 378.604 103.01 382.006 103.628 385.717C104.247 390.047 106.721 393.14 111.051 394.377C113.525 394.995 115.999 395.305 118.473 395.305C125.895 394.995 132.699 392.83 139.194 388.81C139.812 388.501 140.122 387.882 140.122 387.264C140.122 382.934 140.122 379.223 140.122 375.821Z" fill="white"/>
<path d="M482.788 444.169C481.86 443.859 480.933 443.859 480.314 443.859C477.84 443.55 476.912 442.622 476.912 440.148C476.912 437.674 477.221 435.2 477.84 433.035C478.458 430.87 479.077 430.252 481.242 430.561C483.716 430.87 486.19 431.179 488.664 430.87C491.757 430.87 494.54 430.252 497.324 429.014C501.653 427.159 504.437 423.448 506.292 419.118C508.457 414.479 510.313 409.84 511.859 405.201C512.168 404.273 512.168 403.655 511.859 403.036C504.128 382.315 496.396 361.904 488.664 341.183C485.881 334.07 483.407 326.957 480.933 319.844C480.933 319.534 480.623 319.225 480.623 318.916C480.623 317.988 481.242 316.751 482.17 316.751C486.19 316.751 490.52 316.751 494.54 316.751C496.396 316.751 497.324 317.679 497.942 319.225C502.89 333.761 508.148 348.296 513.096 362.522C515.261 368.398 517.426 374.584 519.282 380.46C519.282 380.769 519.591 381.387 519.9 381.697C520.209 381.387 520.209 381.078 520.519 380.46C527.941 360.048 535.363 339.637 542.786 319.225C543.095 318.607 543.095 318.297 543.404 317.679C544.023 316.751 544.951 316.132 546.188 316.132C549.899 316.132 553.301 316.132 557.012 316.132C558.558 316.132 559.177 317.369 558.868 318.916C557.631 322.318 556.393 326.029 555.156 329.431C544.023 359.12 533.199 388.81 522.065 418.499C519.282 425.613 515.57 432.107 509.694 437.055C505.674 440.148 501.035 442.004 496.087 442.931C494.85 443.241 493.303 443.241 492.066 443.55C488.974 444.168 485.881 444.169 482.788 444.169Z" fill="white"/>
<path d="M643.297 406.129C642.678 407.057 641.75 407.366 640.513 407.366C637.111 407.366 633.709 407.366 629.998 407.366C628.143 407.366 626.596 406.747 625.668 404.892C621.648 398.706 617.628 392.521 613.607 386.336C611.442 382.934 608.968 379.223 606.803 375.821C606.185 374.893 605.875 375.202 605.566 375.821C600.309 383.862 595.051 392.212 589.794 400.253C588.557 401.799 587.629 403.655 586.392 405.201C585.464 406.747 584.227 407.366 582.371 407.366C578.969 407.366 575.258 407.366 571.856 407.366C568.764 407.366 568.454 404.582 569.382 402.727C571.238 399.943 573.093 396.851 574.949 394.067C582.062 383.243 589.175 372.419 596.288 361.594C596.907 360.976 596.907 360.357 596.288 359.739C588.247 347.059 579.897 334.688 571.856 322.008C571.547 321.699 571.238 321.081 571.238 320.771C570.619 318.916 571.547 317.369 573.403 317.06C577.114 316.751 580.825 316.751 584.845 317.06C586.082 317.06 587.32 317.988 587.938 318.916C593.196 326.647 598.144 334.688 603.401 342.42C604.02 343.348 604.638 344.585 605.566 345.513C606.494 346.75 606.494 346.75 607.113 345.513C611.752 338.399 616.7 331.286 621.339 323.864C622.267 322.318 623.504 320.771 624.431 319.225C625.359 317.679 626.906 316.751 629.07 316.751C632.163 316.751 635.256 316.751 638.658 316.751C641.441 316.751 642.369 318.916 641.132 321.39C633.091 334.07 624.741 346.75 616.7 359.43C616.081 360.357 616.081 360.667 616.7 361.594C624.122 373.037 631.854 384.48 639.276 396.232C640.822 398.706 642.678 401.18 644.224 403.964C643.297 404.582 643.297 405.201 643.297 406.129Z" fill="white"/>
<path d="M209.396 275.309C210.943 276.237 211.561 277.783 211.561 279.639C211.561 313.658 211.561 347.368 211.87 381.387C211.87 385.408 213.417 389.119 217.128 391.593C219.602 393.14 222.385 393.449 225.169 393.14C228.261 392.83 231.663 392.212 234.756 391.284C237.539 390.356 239.086 391.284 240.014 394.067C240.632 395.923 240.941 397.779 241.251 399.634C241.56 401.799 240.941 403.036 239.086 403.964C235.684 405.51 231.973 406.438 228.261 407.057C221.767 407.984 215.272 407.984 208.778 405.82C201.355 403.345 197.026 398.088 195.17 390.356C194.551 386.954 194.242 383.552 194.242 380.15C194.242 348.915 194.242 317.679 194.242 286.443C194.242 284.278 194.861 282.732 196.716 281.185C199.809 278.711 202.902 276.546 206.922 275.309C206.922 275.309 207.231 275.309 207.231 275C207.85 275.309 208.468 275.309 209.396 275.309Z" fill="white"/>
<path d="M368.668 363.759C360.008 363.759 351.658 363.759 342.999 363.759C342.071 363.759 341.762 364.069 341.762 364.996C342.071 368.089 341.762 371.182 342.38 374.274C342.689 377.058 343.308 379.532 344.545 382.315C347.019 388.501 351.967 392.212 358.462 393.449C365.266 394.995 372.379 394.686 379.183 393.14C382.585 392.521 385.987 391.593 389.389 390.975C391.553 390.665 393.409 391.593 394.028 393.758C394.646 395.923 395.265 398.397 395.574 400.562C395.883 402.108 395.265 403.036 394.337 403.964C393.718 404.582 393.1 404.892 392.172 405.201C385.987 407.984 379.801 409.221 372.997 409.84C367.121 410.149 360.936 410.149 355.06 408.912C340.525 405.82 330.937 397.16 326.917 382.625C324.443 374.584 324.133 366.233 324.443 357.883C324.752 351.079 325.68 343.966 327.845 337.472C330.009 330.977 333.411 325.101 338.669 320.153C344.545 314.895 351.658 312.112 359.699 311.493C364.957 311.184 369.905 311.493 374.853 312.73C385.368 315.823 392.172 322.627 395.574 332.833C397.12 337.472 397.739 342.111 397.739 346.75C397.739 351.079 397.739 355.409 397.429 359.739C397.12 361.904 396.192 363.141 394.028 363.141C385.677 363.759 377.018 363.759 368.668 363.759ZM361.864 352.316C368.049 352.316 374.235 352.316 380.42 352.316C381.348 352.316 381.348 352.007 381.348 351.389C381.348 347.987 381.348 344.276 381.038 340.874C380.729 337.472 379.492 334.07 377.327 330.977C374.235 326.957 370.214 325.101 365.266 324.792C360.318 324.483 355.369 324.792 351.04 327.884C347.638 330.359 345.473 334.07 344.236 337.781C342.689 342.111 342.071 346.44 342.071 350.77C342.071 352.316 342.071 352.316 343.617 352.316C349.803 352.316 355.679 352.316 361.864 352.316Z" fill="white"/>
<path d="M262.282 358.193C262.592 348.915 262.592 339.946 262.901 330.668C262.901 329.74 262.901 329.431 261.664 329.431C258.88 329.431 255.788 329.431 253.004 329.431C252.386 329.431 251.767 329.431 251.458 329.431C250.221 329.122 249.293 328.194 248.984 326.957C248.675 324.173 248.675 321.699 248.984 318.916C248.984 316.751 250.221 315.514 252.695 315.514C255.788 315.514 258.88 315.514 261.973 315.514C262.901 315.514 263.21 315.205 263.21 314.277C263.21 307.164 263.519 300.36 263.519 293.247C263.519 292.937 263.519 292.628 263.519 292.628C263.519 288.917 263.519 288.917 266.612 286.443C269.086 284.278 271.87 283.041 274.653 281.804C277.436 280.567 279.601 282.113 279.601 285.206C279.601 295.102 279.601 304.69 279.601 314.586C279.601 316.132 279.601 316.132 281.148 316.132C287.642 316.132 293.827 316.132 300.322 316.442C301.559 316.442 302.487 316.751 303.105 317.679C303.415 317.988 303.415 318.297 303.415 318.916C303.415 321.39 303.415 324.173 303.415 326.647C303.415 328.503 302.178 329.431 300.322 329.74C294.137 330.049 287.951 329.74 281.766 330.049C279.601 330.049 279.601 330.049 279.601 332.214C279.292 348.296 279.292 364.378 279.292 380.46C279.292 382.625 279.601 384.789 280.22 386.954C281.766 390.975 284.859 393.449 289.188 393.758C293.209 394.067 297.229 393.14 300.941 392.212C301.25 392.212 301.868 391.903 302.178 391.903C304.652 391.284 306.198 392.212 307.126 394.686C307.744 396.851 308.363 398.706 308.672 400.871C308.982 402.727 308.363 403.964 306.507 404.892C304.652 405.82 302.796 406.438 300.941 407.057C292.59 409.221 284.24 409.531 275.89 406.747C268.468 404.273 264.138 398.706 262.592 391.284C261.973 387.573 261.973 384.171 261.664 380.46C261.973 372.419 262.282 365.306 262.282 358.193Z" fill="white"/>
<path d="M438.563 324.483C439.8 323.555 440.728 322.627 441.656 322.008C445.676 318.607 450.006 316.132 455.263 315.514C458.356 315.205 461.139 315.205 464.232 315.823C465.778 316.132 466.706 317.06 466.397 318.607C466.088 322.008 465.469 325.41 464.851 328.812C464.541 330.049 463.304 330.668 462.067 330.668C461.139 330.668 459.902 330.359 458.975 330.359C453.408 329.74 448.769 331.596 444.748 334.998C443.202 336.235 441.656 337.781 440.109 339.637C439.8 340.255 439.491 340.564 439.491 341.492C439.491 359.12 439.491 377.058 439.491 394.686C439.491 397.779 439.491 401.181 439.182 404.273C439.182 406.747 437.635 407.984 435.47 407.984C432.068 407.984 428.976 407.984 425.574 407.984C424.027 407.984 422.79 406.747 422.481 405.201C422.481 403.345 422.172 401.799 422.172 399.943C422.172 373.656 422.172 347.368 422.172 321.39C422.172 319.534 423.718 317.679 425.883 317.679C428.666 317.679 431.759 317.679 434.543 317.679C437.017 317.679 438.254 318.916 438.563 321.699C438.254 322.008 438.254 323.246 438.563 324.483Z" fill="white"/>
</g>
<defs>
<clipPath id="clip0_302_93">
<rect width="569" height="569" fill="white" transform="translate(75 76)"/>
</clipPath>
</defs>
</svg>
